<?xml version="1.0" encoding="utf-8"?>
<!-- Generator: Adobe Illustrator 22.0.1, SVG Export Plug-In . SVG Version: 6.00 Build 0)  -->
<svg version="1.1" id="b579c4f0-774b-4bd6-bbf3-fbc1b87111a5"
	 xmlns="http://www.w3.org/2000/svg" xmlns:xlink="http://www.w3.org/1999/xlink" x="0px" y="0px" viewBox="0 0 909 591.3"
	 style="enable-background:new 0 0 909 591.3;" xml:space="preserve">
<style type="text/css">
	.st0{fill:#FDB8D6;}
	.st1{opacity:0.1;enable-background:new    ;}
	.st2{display:none;fill:#FDB8D6;}
	.st3{display:none;fill:#F2F2F2;}
	.st4{display:none;fill:#CFCCE0;}
	.st5{display:none;fill:#3F3D56;}
	.st6{fill:#3F3D56;}
	.st7{opacity:0.2;}
	.st8{fill:#FFFFFF;}
	.st9{fill:#FFB8B8;}
	.st10{fill:#575A89;}
	.st11{fill:#2F2E41;}
	.st12{opacity:0.2;enable-background:new    ;}
</style>
<g>
	<path class="st0" d="M689.7,347.9c-3,7.3-41.9,4.8-41.9,4.8l0-0.7l0.1-5.4l40.2-4.6l1.4,5.2L689.7,347.9z"/>
	<path class="st0" d="M647.8,352.7L647.8,352.7c0,0-6.6,2.5-13.9,32.4s-6.8,67.5-6.8,67.5s-4.8,10.8,20.7,8.5c0,0-1.3,6.9,13,4.2
		C675,462.7,673,463,673,463s8.6-6.9,12.8-6.3s6.8,0.6,11.7,3.8c4.9,3.2,18.9,0.1,18.7-2.8c0-1.4-0.2-2.9-0.5-4.3
		c0,0,21.9-1.1,16-16.4c-5.9-15.3-12.3-40.7-12.3-40.7s-16.9-49.1-29.6-48.4C676.9,348.7,647.8,352.7,647.8,352.7z"/>
	
		<rect x="646.5" y="373.1" transform="matrix(0.9997 -2.263738e-02 2.263738e-02 0.9997 -9.2776 14.7504)" class="st1" width="0.7" height="88.1"/>
	
		<rect x="667.5" y="370.8" transform="matrix(0.9939 -0.1106 0.1106 0.9939 -42.0051 76.3849)" class="st1" width="0.7" height="92.4"/>
	
		<rect x="690.1" y="368.1" transform="matrix(0.9885 -0.1512 0.1512 0.9885 -54.7439 109.1772)" class="st1" width="0.7" height="92.8"/>
	<path class="st1" d="M715.3,453.4c-7.2-52.4-20.3-87.3-20.5-87.6l0.6-0.2c0.1,0.3,13.3,35.3,20.5,87.8L715.3,453.4z"/>
	<path class="st1" d="M649.6,357.7c0,0-1.1,0.8,0.5,4"/>
	<path class="st1" d="M653,357.3c0,0-3,2.4,0.6,5.5"/>
	<path class="st1" d="M683.4,353.8c0,0,4.9,3.8,4,5.1"/>
	<path class="st1" d="M686.9,352.4c0,0,1.3,5,4,6.1"/>
</g>
<path class="st0" d="M604.3,315.6c0,0-3.8-0.9-2.3,4.1c1.5,5,3.5,20.9,1.3,24c-2.2,3-2.2,11.8-10.3,12.7l1.3,9.3
	c0,0-1.7,19.9-2.9,22.8c-1.2,2.8-3.1,18.9-3,20.6s-1.2,12.7-2.5,13.1s-2.6,5.6,1.3,6.9c3.9,1.3,20.8,3.6,23.8,4.8s24.8,2.6,24.8,2.6
	s9.3-0.3,11.7-0.8c2.4-0.5,3-2.3,2.6-5.9s-1.2-29.5-0.1-32.7c1.1-3.1,4.6-34.5,4.6-34.5s-5.8-2.6-5.1-8.4c0.6-5.8,0-21.7,5.8-30.9
	c0,0-3.6-3-4.2-2.6s-6.3-1.9-6.3-1.9s-5.8,26.3-18.3,25.1c-12.5-1.2-15.2-28.7-15.2-28.7S611.7,312.7,604.3,315.6z"/>
<g>
	<path class="st0" d="M575.4,291.4c-16.8,9.8-31.2,23.4-42,39.6c-1.4-1.7-3.4-2.9-5.6-3.3c-1.5-0.3-3.1-0.4-4.6-0.3
		c-1.4,0.1-2.4,1.4-3.1,2.9c-0.8,1.9-1.3,3.9-1.6,6c-24.5-6.6-57.5-4.7-57.5-4.7l-1-2.7c-0.2-0.5-0.3-1.2-0.5-2
		c-0.2-0.8-0.3-1.5-0.4-2.3c-2-13.8-2.4-46.8-2.4-46.8l3.1-1.1l8.2-2.9l23.6-3.2l24.2-10.2l23.1-14l3-1.8
		c6.9,2.3,23.4,29.8,30.3,41.6c0.9,1.5,1.6,2.7,2.1,3.6C575,290.8,575.4,291.4,575.4,291.4z"/>
	<path class="st1" d="M463.6,323.6c-3.7-12.6-3.3-43-3.2-48l-3.1,1.1c0,0,0.4,35.1,2.5,48c0,0,0,0.1,0,0.1c0.1,0.4,0.1,0.7,0.2,1
		c0.2,0.8,0.3,1.4,0.5,2l1,2.7c0,0,33-1.9,57.5,4.7c0.2-2.1,0.8-4.1,1.6-6C510.5,325,478,323.9,463.6,323.6z"/>
	<path class="st1" d="M573.4,289.2l-0.8-1.4c-0.4-0.7-0.8-1.4-1.3-2.3l0,0c-6.8-11.8-23.4-39.2-30.3-41.6l-3,1.8
		c3.8,4.6,28.6,34.6,29.9,41.6c-19.7,11.7-36.3,33-41.2,39.6c2.2,0.4,4.2,1.6,5.6,3.3c10.8-16.2,25.2-29.7,42-39.6
		C574.3,290.9,574,290.3,573.4,289.2z"/>
	<path class="st0" d="M574.4,289.7c-0.2-0.4-0.5-0.9-0.8-1.4c-0.4-0.7-0.8-1.4-1.3-2.3l0,0c-6.8-11.8-23.4-39.3-30.3-41.6l-3,1.8
		c3.8,4.6,28.6,34.6,29.9,41.6c-19.7,11.7-36.3,33-41.2,39.7c2.2,0.4,4.2,1.6,5.6,3.3c10.8-16.2,25.2-29.7,42-39.6
		C575.4,291.4,575,290.8,574.4,289.7z"/>
	<path class="st1" d="M460.4,293.6c0,0,24,5.4,22.2-14.3l4.8-0.4c0,0,8.5,19.5-26.9,19.1L460.4,293.6z"/>
	<path class="st0" d="M459.9,292.1c0,0,24,5.4,22.2-14.3l4.8-0.4c0,0,8.5,19.5-26.9,19.1L459.9,292.1z"/>
	<path class="st1" d="M520.4,266.7c0,0,7.7,13.9,32.1-2.8l-1.9-2.5c0,0-15.7,14.1-27,3.2L520.4,266.7z"/>
	<path class="st0" d="M519.9,265.2c0,0,7.7,13.9,32.1-2.8l-1.9-2.5c0,0-15.7,14.1-27,3.2L519.9,265.2z"/>
	<path class="st1" d="M502.4,272.8l10.9,30.9l4.8-1.7c0,0,5.8-4.7,0.7-18.5s-7.4-17.2-7.4-17.2L502.4,272.8z"/>
	<path class="st0" d="M501.4,272.3l10.9,30.9l4.8-1.7c0,0,5.8-4.7,0.7-18.5s-7.4-17.2-7.4-17.2L501.4,272.3z"/>
	<path class="st1" d="M542.6,246.1c-0.7,4.3-16.3,16.5-19,18.6l-0.4,0.3c0,0-1,0.7-2.8,1.7c-5.3,3.2-17.2,9.9-27.4,11.3
		c-1.5,0.2-3,0.4-4.6,0.7l-3.6,0.5c-11.9,1.4-24.4,2.2-27.4,0.1c0,0-2.7-9.4-0.7-9.8c1.9-0.4,25.7,1,25.7,1l0.3-0.1
		c0.6-0.1,1.8-0.4,3.6-0.8c7-1.6,21.6-5.4,28.5-10.2c0.3-0.2,0.6-0.5,0.9-0.7c0.5-0.4,1-0.8,1.6-1.3c8.6-6.9,21.1-18.3,21.1-18.3
		S543.3,241.4,542.6,246.1z"/>
	<path class="st0" d="M542,244.6c-0.7,4.3-16.3,16.5-19,18.6l-0.4,0.3c0,0-1,0.7-2.8,1.7c-5.3,3.2-17.2,9.9-27.4,11.3
		c-1.5,0.2-3,0.4-4.6,0.7l-3.6,0.5c-11.9,1.4-24.4,2.2-27.4,0.1c0,0-2.7-9.4-0.7-9.8s25.7,1,25.7,1l0.3-0.1c0.6-0.1,1.8-0.4,3.6-0.8
		c7-1.6,21.6-5.4,28.5-10.2c0.3-0.2,0.6-0.5,0.9-0.7c0.5-0.4,1-0.8,1.6-1.3c8.6-6.9,21.1-18.3,21.1-18.3S542.8,239.8,542,244.6z"/>
	<ellipse transform="matrix(0.9433 -0.332 0.332 0.9433 -60.3267 182.6763)" class="st0" cx="504.5" cy="267.9" rx="3.3" ry="3.3"/>
	<path class="st1" d="M486.4,267.8l2.2,9l-3.6,0.5l-2.1-8.7C483.4,268.5,484.6,268.2,486.4,267.8z"/>
	<path class="st0" d="M485.6,268.1l2.2,9l-3.6,0.5l-2.1-8.7C482.6,268.8,483.9,268.5,485.6,268.1z"/>
	<path class="st1" d="M522.3,263.4l-0.4,0.3c0,0-1,0.7-2.8,1.7l-5.8-7.3c0.3-0.2,0.6-0.5,0.9-0.7c0.5-0.4,1-0.8,1.6-1.3L522.3,263.4
		z"/>
	<path class="st0" d="M523,263.1l-0.4,0.3c0,0-1,0.7-2.8,1.7l-5.8-7.3c0.3-0.2,0.6-0.5,0.9-0.7c0.5-0.4,1-0.8,1.6-1.3L523,263.1z"/>
</g>
<title>throw_away</title>
<path class="st2" d="M306.6,590H39.7c0,0-5.4-79.3,26.6-80.2s28.4,35.2,68.5-14.4s88.8-46.9,95.1-17.6s-12.2,52.7,21.6,45.5
	S334.1,535,306.6,590z"/>
<path class="st3" d="M168.7,590l-0.9,0c2.1-52.2,13-85.8,21.8-104.8c9.6-20.6,18.8-28.9,18.9-29l0.6,0.7c-0.1,0.1-9.2,8.3-18.7,28.8
	C181.6,504.5,170.7,537.9,168.7,590z"/>
<path class="st3" d="M265.2,590.1l-0.9-0.3c10.4-35.8,35-58.4,35.2-58.6l0.6,0.7C299.9,532.2,275.6,554.6,265.2,590.1z"/>
<path class="st3" d="M81.8,590l-0.9-0.1c3.5-25.5-2.9-45.3-8.8-57.4c-6.5-13.1-13.9-20.3-13.9-20.3l0.6-0.7
	c0.1,0.1,7.6,7.3,14.1,20.6C78.9,544.3,85.3,564.3,81.8,590z"/>
<path class="st4" d="M342.8,591.2H10.9l-0.1-1.1c-0.2-2.8-4.4-68.8,16.9-92.3c4.8-5.3,10.5-8,17.1-8.2c13.9-0.4,22.7,4.8,29.8,9
	c13.3,7.9,22.1,13.1,54.1-26.4c34.6-42.8,72-52,93.5-46.9c13.9,3.3,23.4,12.7,26.2,25.7c2.7,12.3,1.8,23.9,1.1,33.2
	c-0.7,9.9-1.3,17.8,2.8,21.4c3.4,3,10.2,3.2,21.4,0.8c22.8-4.9,54.6-0.7,70.5,19.9c8.6,11.1,15.3,31.2-1.2,64.3L342.8,591.2z
	 M13.2,588.8h328.1c12.3-25,12.7-46.1,1.1-61.1c-14.6-18.9-45.3-23.9-68.1-19c-12.2,2.6-19.4,2.2-23.5-1.4c-5-4.4-4.4-12.7-3.6-23.4
	c0.7-9.1,1.5-20.5-1.1-32.5c-2.6-12.1-11.5-20.7-24.4-23.8c-20.8-5-57.1,4.1-91.1,46.1c-33.3,41.1-43.3,35.2-57.2,27
	c-7.1-4.2-15.3-9-28.5-8.7c-5.9,0.2-11.1,2.7-15.4,7.4C10.4,520.5,12.7,579.8,13.2,588.8z"/>
<rect x="628.1" y="348.4" transform="matrix(0.1713 -0.9852 0.9852 0.1713 153.1572 929.7195)" class="st5" width="2.4" height="50.8"/>
<rect x="626.4" y="357.7" transform="matrix(0.1713 -0.9852 0.9852 0.1713 142.6479 935.837)" class="st5" width="2.4" height="50.8"/>
<rect x="624.8" y="367" transform="matrix(0.1713 -0.9852 0.9852 0.1713 132.1386 941.9547)" class="st5" width="2.4" height="50.8"/>
<rect x="675.9" y="354.5" transform="matrix(0.1713 -0.9852 0.9852 0.1713 186.8156 981.9084)" class="st6" width="2.4" height="50.8"/>
<rect x="674.3" y="363.8" transform="matrix(0.1713 -0.9852 0.9852 0.1713 176.3121 988.0242)" class="st6" width="2.4" height="50.8"/>
<rect x="672.7" y="373.1" transform="matrix(0.1713 -0.9852 0.9852 0.1713 165.8029 994.1419)" class="st6" width="2.4" height="50.8"/>
<rect x="671.1" y="382.4" transform="matrix(0.1713 -0.9852 0.9852 0.1713 155.2936 1000.2594)" class="st6" width="2.4" height="50.8"/>
<rect x="669.4" y="391.7" transform="matrix(0.1713 -0.9852 0.9852 0.1713 144.7843 1006.377)" class="st6" width="2.4" height="50.8"/>
<rect x="667.8" y="401" transform="matrix(0.1713 -0.9852 0.9852 0.1713 134.275 1012.4946)" class="st6" width="2.4" height="50.8"/>
<path class="st6" d="M740.1,589.9H567.8l0-1l-8.2-235.2h188.7L740.1,589.9z M569.8,587.9h168.4l8.1-232.1H561.7L569.8,587.9z"/>
<polygon class="st6" points="730.6,577.2 577.3,577.2 569.9,366.4 738,366.4 "/>
<g class="st7">
	<rect x="595.8" y="397.3" class="st8" width="13.1" height="162.1"/>
	<rect x="647.4" y="397.3" class="st8" width="13.1" height="162.1"/>
	<rect x="699" y="397.3" class="st8" width="13.1" height="162.1"/>
</g>
<rect x="738.3" y="217.2" transform="matrix(0.5344 -0.8452 0.8452 0.5344 61.2283 797.7472)" class="st6" width="32.7" height="252.2"/>
<path class="st6" d="M785.1,295.2c-17.9-11.4-41.7-6-53.1,11.9c-4.9,7.8-6.9,17-5.6,26.1l10.2,6.4c-6.6-15.4,0.5-33.2,15.9-39.9
	c15.4-6.6,33.2,0.5,39.9,15.9c6.6,15.4-0.5,33.2-15.9,39.9c-3.4,1.5-7.1,2.3-10.9,2.5l10.2,6.4c20.3-6.2,31.7-27.7,25.5-48.1
	C798.6,307.6,792.9,300.1,785.1,295.2L785.1,295.2z"/>
<rect y="588.5" class="st6" width="909" height="2"/>
<path class="st9" d="M480,248.5c0,0,39,29,23,34s-36-17-35-23C469,253.5,480,248.5,480,248.5z"/>
<polygon class="st10" points="446,211.5 486,248.5 470,265.5 443,245.5 "/>
<polygon class="st9" points="303.2,490.4 288,522.3 330.4,532.5 329.3,501.7 "/>
<polygon class="st9" points="455,533.5 460,568.5 501,553.5 483,528.5 "/>
<path class="st11" d="M364.2,203.9c0,0-6.3,40.2-4.6,59.4s-5,99.9-5,99.9s-30.2,32.8-37,70.3c-4.5,23.6-11.7,46.6-21.5,68.6
	l35.5,11.6l70.4-133.3c0,0,50.5-110.5,45.5-121c-5-10.5-12.9-52.9-12.9-52.9L364.2,203.9z"/>
<path class="st11" d="M297.1,514c0,0,0-18-6.4-10.2s-27.1,22.8-14.9,33.3s83.6,67.5,87.5,50.8c2.1-9.2-33.5-71.6-33.5-71.6
	s-11.9,0.7-12.7,3.8S297.1,514,297.1,514z"/>
<polygon class="st9" points="424,40.5 397,71.5 424,99.5 449,61.5 "/>
<path class="st9" d="M470,42.5c0,14.9-12.1,27-27,27c-14.9,0-27-12.1-27-27s12.1-27,27-27c12.9,0,24.1,9.2,26.5,21.9
	C469.8,39.1,470,40.8,470,42.5z"/>
<path class="st11" d="M425.2,22.1c9.4-4.4,20.4-3.8,30.3-0.8c5.6,1.7,11.1,4.3,15.1,8.6s5.9,10.8,3.9,16.3l-8.2-6.2l-0.7,5.4
	c-5.4-8.4-15.6-12.1-25.1-15.2c-3-1-6.9-1.6-8.6,1c-0.7,1.1-0.8,2.5-1.6,3.6c-1.4,2-4.4,1.8-6.7,2.9c-2.1,1-3.3,3.2-4.4,5.2
	s-0.6,4.9-2.6,6c-8.1,4.5-3.3-12.9-2-16C417.1,27,419.3,24.8,425.2,22.1z"/>
<path class="st11" d="M347.5,261c0,0,17,37,29,52s51,86,51,86s-7,44,8,79c9.3,22.2,16,45.3,20,69l36-10l-15-150c0,0-19-120-29-126
	c-10-6-40-37-40-37L347.5,261z"/>
<path class="st10" d="M431,97.5c0,0-17-45-40-31s-41,139-41,139s-21,57,0,63s38,14,41,3s1-30,6-20c5,10,3,22,13,22s49-5,48-12
	C457,254.5,431,97.5,431,97.5z"/>
<path class="st9" d="M348,274.5c0,0-13,39,5,39s15.4-39.4,15.4-39.4L348,274.5z"/>
<path class="st11" d="M463,556.5c0,0-10-15-11-5s-10,34,6,36s107,10,101-6c-3.3-8.9-67.5-41.2-67.5-41.2s-9.5,7.2-8.5,10.2
	S463,556.5,463,556.5z"/>
<path class="st10" d="M487.5,49c0,0-4.7,4.1-10.9-4c-1.6-2.2-3-4.5-4.1-7c-4.9-4.9-11.6-7.8-18.6-8c-0.5,0-1,0-1.4,0
	c-13,0-16-9-16-9l-21,7c0,0,3-28,32-28s30,24,30,24S500.5,33,487.5,49z"/>
<path class="st12" d="M476.6,45c-1.6-2.2-3-4.5-4.1-7c-4.9-4.9-11.6-7.8-18.6-8c7.3-2.3,20-4.9,25.6,2
	C484.6,38.4,480.4,42.7,476.6,45z"/>
<path class="st10" d="M392,74.5c0,0-27-5-34,19s-22,95-22,95l9,73l-1,18h29v-19c0-2,4-80,4-80l33-75C410,105.5,417,81.5,392,74.5z"
	/>
<polygon class="st12" points="410.5,116 377.5,181 373.5,274.1 384.5,180 "/>
<polygon class="st12" points="450.5,215.7 458,254.1 454.3,219.2 "/>
<polygon class="st12" points="365.5,305.5 408.5,366.5 404,375.5 "/>
<path class="st1" d="M453.1,272.6c-0.8,4.1-23.8,13.3-23.8,13.3l-29.8,3.1l-21.9-3.5l-11.8-7l0.1-4.3c-0.2-0.7,0-1.5,0.6-2
	c1-0.9,3.4-1.6,8.8-1.1c11.1,1,42.9,4.6,56.6,1.5c11.2-2.5,18.7-3.6,20.6-1.8C453.1,271.2,453.3,271.9,453.1,272.6z"/>
<path class="st1" d="M528.6,228.5c0,0-8.6,2.6-7.8,5.9"/>
</svg>
